Coordinates
version=1
nRows=26
nColumns=22
inDegrees=yes

Units are S.I. units (second, meters, Newtons, ...)
If the header above contains a line with 'inDegrees', this indicates whether rotational values are in degrees (yes) or radians (no).

endheader
time	pelvis_tilt	pelvis_list	pelvis_rotation	pelvis_tx	pelvis_ty	pelvis_tz	hip_flexion_r	hip_adduction_r	hip_rotation_r	knee_angle_r	ankle_angle_r	subtalar_angle_r	hip_flexion_l	hip_adduction_l	hip_rotation_l	knee_angle_l	ankle_angle_l	subtalar_angle_l	lumbar_extension	lumbar_bending	lumbar_rotation
      4.92000000	     -4.83262696	      1.16338906	   -139.78739028	      0.33128958	      0.93217397	      0.76665719	     -0.57130212	     12.83712913	     12.76336663	    -18.03731507	     11.73585038	     -9.01117933	     26.10043967	    -12.23920184	      5.59656553	    -44.28079567	      4.44328278	      0.27325978	     -8.07983401	      0.43812380	      1.65807726
      4.93000000	     -4.85858621	      1.14044371	   -140.57981240	      0.32758771	      0.93187812	      0.77206801	     -1.06411830	     12.63080221	     13.46770564	    -18.17802932	     12.12572490	     -8.85326459	     25.92321316	    -12.25731979	      5.87659480	    -41.44951022	      4.66123457	      0.18254220	     -8.05443655	      0.41957760	      1.91975856
      4.94000000	     -4.82942983	      1.16364078	   -141.32813160	      0.32397246	      0.93132514	      0.77751742	     -1.42461757	     12.41838581	     14.08418323	    -18.40241922	     12.61441449	     -8.73257112	     25.79103481	    -12.24093023	      6.23439740	    -38.58202443	      4.85555982	      0.24503368	     -7.94476729	      0.41647346	      2.11785064
      4.95000000	     -4.85430069	      1.15031326	   -141.99383887	      0.32038575	      0.93082431	      0.78315293	     -1.91249503	     12.18428527	     14.63806227	    -18.50420408	     13.04449003	     -8.58512198	     25.53274046	    -12.18010016	      6.72009904	    -35.65044621	      4.96782103	      0.45657570	     -7.89734057	      0.43361923	      2.24449265
      4.96000000	     -4.85596665	      1.15306400	   -142.60665235	      0.31686427	      0.93016795	      0.78887329	     -2.34961270	     11.93813621	     15.12384907	    -18.62955801	     13.52160161	     -8.44964560	     25.26778904	    -12.08683220	      7.31502984	    -32.70294254	      5.06695552	      0.79333218	     -7.81584510	      0.46241213	      2.29281065
      4.97000000	     -4.85789155	      1.15726708	   -143.16180218	      0.31337783	      0.92942505	      0.79470915	     -2.79315635	     11.67833154	     15.53655971	    -18.72740546	     14.02272093	     -8.31839503	     24.96256086	    -11.97074145	      8.03252273	    -29.75042188	      5.13983389	      1.22482508	     -7.72872162	      0.49930690	      2.30087002
      4.98000000	     -4.87490619	      1.16432925	   -143.66132963	      0.30990287	      0.92862196	      0.80065088	     -3.26635219	     11.41945392	     15.92174218	    -18.78405319	     14.50119388	     -8.18463012	     24.61049757	    -11.85861166	      8.86246075	    -26.81899809	      5.19806594	      1.78097551	     -7.65065948	      0.55860747	      2.23162186
      4.99000000	     -4.90819511	      1.17831525	   -144.10683729	      0.30641990	      0.92775623	      0.80670424	     -3.76365647	     11.16268391	     16.22696983	    -18.80433593	     14.99470734	     -8.05759987	     24.22215137	    -11.76495366	      9.79228441	    -23.94522972	      5.22522387	      2.36917747	     -7.57812582	      0.63739587	      2.14770024
      5.00000000	     -4.97102391	      1.20629254	   -144.50078132	      0.30289925	      0.92684627	      0.81284081	     -4.30556041	     10.92936991	     16.51631157	    -18.77143277	     15.45400931	     -7.93319041	     23.81195730	    -11.72131731	     10.77077252	    -21.18603338	      5.23478543	      3.01284986	     -7.52013436	      0.74769407	      2.01090581
      5.01000000	     -5.06495649	      1.25619861	   -144.84469216	      0.29933946	      0.92588892	      0.81905896	     -4.88622233	     10.72721845	     16.77307241	    -18.68961505	     15.88638419	     -7.81830951	     23.41317359	    -11.73792651	     11.74315227	    -18.61955008	      5.22531807	      3.63414076	     -7.47450469	      0.89655948	      1.84128877
      5.02000000	     -5.18802828	      1.34058896	   -145.14357499	      0.29572088	      0.92487526	      0.82534326	     -5.50228050	     10.56746355	     17.01204982	    -18.55154261	     16.28576608	     -7.71477569	     23.06981385	    -11.82291394	     12.63350640	    -16.33493551	      5.21183899	      4.18796615	     -7.43020647	      1.09269204	      1.65730823
      5.03000000	     -5.33896920	      1.45684594	   -145.39978706	      0.29206723	      0.92381533	      0.83168484	     -6.14461206	     10.44898671	     17.23075708	    -18.37484451	     16.64255957	     -7.62399821	     22.81570168	    -11.95797404	     13.37211061	    -14.42462889	      5.21182561	      4.62371868	     -7.39512858	      1.33370132	      1.44076940
      5.04000000	     -5.50375650	      1.61488367	   -145.63186504	      0.28834657	      0.92269385	      0.83806343	     -6.79829069	     10.37036878	     17.44118523	    -18.15670206	     16.96352678	     -7.54140827	     22.69025176	    -12.13129066	     13.88258818	    -12.96765204	      5.26545331	      4.94764238	     -7.34559946	      1.61559023	      1.25436543
      5.05000000	     -5.66859764	      1.79904256	   -145.84498893	      0.28457707	      0.92152314	      0.84447984	     -7.45323245	     10.30794172	     17.63302278	    -17.90939751	     17.24646577	     -7.46211483	     22.70112598	    -12.30212175	     14.14851362	    -12.00407010	      5.38384213	      5.17260376	     -7.28545014	      1.91355777	      1.09753527
      5.06000000	     -5.82224229	      2.01869262	   -146.03927156	      0.28076210	      0.92028652	      0.85093160	     -8.08840352	     10.26666822	     17.81541905	    -17.64500802	     17.50506910	     -7.38154872	     22.85949600	    -12.45666762	     14.21903683	    -11.54012950	      5.54038985	      5.28599254	     -7.19591984	      2.23135706	      0.96132845
      5.07000000	     -5.92602667	      2.25552698	   -146.21495249	      0.27689626	      0.91896642	      0.85741907	     -8.67642740	     10.20759315	     17.97366567	    -17.37037918	     17.77835135	     -7.31391288	     23.16054131	    -12.55132280	     14.16497234	    -11.53223601	      5.64504871	      5.30584450	     -7.05202025	      2.52107884	      0.82144407
      5.08000000	     -6.06330082	      2.53556453	   -146.40228988	      0.27295949	      0.91766680	      0.86391309	     -9.29190809	     10.19793215	     18.18738368	    -17.05969531	     17.93533756	     -7.20181139	     23.49113054	    -12.67500553	     14.08094000	    -11.87827311	      5.83357739	      5.30519227	     -6.92604254	      2.86977941	      0.75276127
      5.09000000	     -6.15021173	      2.83818525	   -146.58617614	      0.26897015	      0.91631342	      0.87045264	     -9.85636156	     10.17183089	     18.40540201	    -16.74047870	     18.08012781	     -7.06226409	     23.88842937	    -12.74883599	     14.07746661	    -12.51079808	      5.91553009	      5.26215747	     -6.74216575	      3.19842355	      0.71138273
      5.10000000	     -6.19319675	      3.17177177	   -146.76743280	      0.26494370	      0.91492279	      0.87704510	    -10.35990098	     10.14334143	     18.63048554	    -16.43133405	     18.19027044	     -6.88527855	     24.31520018	    -12.78366249	     14.24490851	    -13.32846343	      5.90039955	      5.21501983	     -6.50403205	      3.52342537	      0.68504369
      5.11000000	     -6.17394376	      3.53467738	   -146.93950093	      0.26089061	      0.91351006	      0.88376100	    -10.78495001	     10.09407858	     18.81049821	    -16.13074550	     18.26749857	     -6.64307951	     24.75113483	    -12.76237379	     14.62157955	    -14.22546496	      5.73662225	      5.22389860	     -6.18682132	      3.84205926	      0.67607401
      5.12000000	     -6.10788576	      3.87777265	   -147.10953458	      0.25682843	      0.91217039	      0.89058858	    -11.16516024	      9.99575947	     18.98638695	    -15.85934126	     18.31528560	     -6.36733056	     25.13619735	    -12.65156494	     15.21917377	    -15.14338758	      5.43424079	      5.38286394	     -5.84485883	      4.11331682	      0.65767858
      5.13000000	     -6.00716818	      4.20696715	   -147.26448587	      0.25274010	      0.91096026	      0.89756655	    -11.52642558	      9.85775289	     19.14518672	    -15.57773876	     18.29072190	     -6.10465319	     25.45339475	    -12.46138873	     16.04530470	    -16.01510549	      5.00538164	      5.69582177	     -5.47660890	      4.35434119	      0.63294341
      5.14000000	     -5.86944783	      4.50572486	   -147.39957693	      0.24862731	      0.90993845	      0.90468289	    -11.86426898	      9.67013999	     19.26097342	    -15.30107604	     18.16052567	     -5.89031364	     25.70089792	    -12.17905627	     17.06844895	    -16.81447255	      4.45170182	      6.07134551	     -5.08980395	      4.54349643	      0.59767128
      5.15000000	     -5.63298729	      4.78142906	   -147.53323576	      0.24445696	      0.90902043	      0.91188053	    -12.09832118	      9.41715911	     19.39210527	    -15.07812385	     18.00466745	     -5.62239703	     25.99952129	    -11.78865806	     18.13508628	    -17.63369491	      3.85137817	      6.74765692	     -4.61541278	      4.64440033	      0.50385962
      5.16000000	     -5.36461594	      5.00443179	   -147.64868740	      0.24018978	      0.90838320	      0.91916358	    -12.32380322	      9.11080963	     19.49800374	    -14.86914232	     17.72325473	     -5.41620359	     26.25896192	    -11.31396167	     19.21758808	    -18.43021640	      3.23861007	      7.39099715	     -4.13391111	      4.66262749	      0.38786325
      5.17000000	     -5.05417360	      5.16652735	   -147.75487452	      0.23578452	      0.90802765	      0.92649281	    -12.52723767	      8.74494586	     19.59243455	    -14.69490391	     17.33939743	     -5.23381670	     26.51417987	    -10.76078594	     20.18029168	    -19.25869935	      2.71071791	      7.98787510	     -3.63881302	      4.58007497	      0.23088850
